<svg width="1600" height="1000" viewBox="0 0 1600 1000" fill="none" xmlns="http://www.w3.org/2000/svg">
  <defs>
    <linearGradient id="base" x1="0" y1="0" x2="1600" y2="1000" gradientUnits="userSpaceOnUse">
      <stop stop-color="#F8FAFC"/>
      <stop offset="0.5" stop-color="#EEF2FF"/>
      <stop offset="1" stop-color="#ECFEFF"/>
    </linearGradient>
    <linearGradient id="lineA" x1="0" y1="0" x2="1600" y2="0" gradientUnits="userSpaceOnUse">
      <stop stop-color="#0284C7" stop-opacity="0.18"/>
      <stop offset="0.5" stop-color="#2563EB" stop-opacity="0.1"/>
      <stop offset="1" stop-color="#0EA5E9" stop-opacity="0.18"/>
    </linearGradient>
    <linearGradient id="lineB" x1="1600" y1="0" x2="0" y2="0" gradientUnits="userSpaceOnUse">
      <stop stop-color="#4F46E5" stop-opacity="0.18"/>
      <stop offset="0.5" stop-color="#1D4ED8" stop-opacity="0.08"/>
      <stop offset="1" stop-color="#06B6D4" stop-opacity="0.16"/>
    </linearGradient>
  </defs>

  <rect width="1600" height="1000" fill="url(#base)"/>
  <ellipse cx="1280" cy="130" rx="330" ry="220" fill="#60A5FA" fill-opacity="0.16"/>
  <ellipse cx="240" cy="860" rx="280" ry="180" fill="#2DD4BF" fill-opacity="0.14"/>

  <path d="M-120 230 C120 140 300 300 560 230 C810 164 980 300 1230 230 C1400 182 1520 194 1720 252" stroke="url(#lineA)" stroke-width="26" stroke-linecap="round" fill="none"/>
  <path d="M-120 760 C90 688 280 840 520 760 C760 680 960 830 1220 760 C1390 716 1510 728 1720 782" stroke="url(#lineB)" stroke-width="22" stroke-linecap="round" fill="none"/>
  <path d="M-120 300 C140 230 310 350 560 300 C840 244 1030 356 1260 300 C1420 262 1540 270 1720 324" stroke="#0EA5E9" stroke-opacity="0.14" stroke-width="9" stroke-linecap="round" fill="none"/>
</svg>
