<svg width="1600" height="1000" viewBox="0 0 1600 1000" fill="none" xmlns="http://www.w3.org/2000/svg">
  <defs>
    <linearGradient id="base" x1="0" y1="0" x2="1600" y2="1000" gradientUnits="userSpaceOnUse">
      <stop stop-color="#FFF7ED"/>
      <stop offset="0.45" stop-color="#F5F3FF"/>
      <stop offset="1" stop-color="#ECFEFF"/>
    </linearGradient>
    <linearGradient id="lineA" x1="0" y1="0" x2="1600" y2="0" gradientUnits="userSpaceOnUse">
      <stop stop-color="#F97316" stop-opacity="0.26"/>
      <stop offset="0.5" stop-color="#EC4899" stop-opacity="0.16"/>
      <stop offset="1" stop-color="#06B6D4" stop-opacity="0.24"/>
    </linearGradient>
    <linearGradient id="lineB" x1="1600" y1="0" x2="0" y2="0" gradientUnits="userSpaceOnUse">
      <stop stop-color="#8B5CF6" stop-opacity="0.22"/>
      <stop offset="0.5" stop-color="#EF4444" stop-opacity="0.14"/>
      <stop offset="1" stop-color="#0EA5E9" stop-opacity="0.22"/>
    </linearGradient>
  </defs>

  <rect width="1600" height="1000" fill="url(#base)"/>
  <ellipse cx="1330" cy="140" rx="360" ry="240" fill="#FB7185" fill-opacity="0.16"/>
  <ellipse cx="250" cy="840" rx="300" ry="190" fill="#22D3EE" fill-opacity="0.15"/>

  <path d="M-120 210 C90 90 260 340 490 210 C740 76 930 344 1180 210 C1360 114 1490 122 1720 236" stroke="url(#lineA)" stroke-width="30" stroke-linecap="round" fill="none"/>
  <path d="M-120 770 C90 642 280 900 520 770 C770 630 980 890 1230 770 C1410 674 1520 686 1720 790" stroke="url(#lineB)" stroke-width="26" stroke-linecap="round" fill="none"/>
  <path d="M-120 320 C130 230 300 380 560 320 C820 250 1010 382 1240 320 C1410 276 1520 286 1720 336" stroke="#F43F5E" stroke-opacity="0.16" stroke-width="10" stroke-linecap="round" fill="none"/>
</svg>
